<?xml version="1.0" encoding="UTF-8" standalone="no"?>
<!-- Created with Inkscape (http://www.inkscape.org/) -->

<svg
   version="1.1"
   id="svg2"
   xml:space="preserve"
   width="393.63199"
   height="162.84801"
   viewBox="0 0 393.63197 162.84801"
   sodipodi:docname="h-bridge.svg"
   inkscape:version="1.1.1 (3bf5ae0d25, 2021-09-20)"
   xmlns:inkscape="http://www.inkscape.org/namespaces/inkscape"
   xmlns:sodipodi="http://sodipodi.sourceforge.net/DTD/sodipodi-0.dtd"
   xmlns="http://www.w3.org/2000/svg"
   xmlns:svg="http://www.w3.org/2000/svg"><defs
     id="defs6" /><sodipodi:namedview
     id="namedview4"
     pagecolor="#ffffff"
     bordercolor="#666666"
     borderopacity="1.0"
     inkscape:pageshadow="2"
     inkscape:pageopacity="0.0"
     inkscape:pagecheckerboard="0"
     showgrid="false"
     fit-margin-top="10"
     fit-margin-left="10"
     fit-margin-right="10"
     fit-margin-bottom="10"
     inkscape:zoom="7.2407734"
     inkscape:cx="155.16298"
     inkscape:cy="109.58774"
     inkscape:window-width="1920"
     inkscape:window-height="1015"
     inkscape:window-x="0"
     inkscape:window-y="0"
     inkscape:window-maximized="1"
     inkscape:current-layer="g8" /><g
     id="g8"
     inkscape:groupmode="layer"
     inkscape:label="h-bridge"
     transform="matrix(0.0096,0,0,-0.0096,-211.184,578.416)"><path
       d="m 32000,56580 h 2000 v -800 h -2000 z"
       style="fill:none;stroke:#840000;stroke-width:100;stroke-linecap:round;stroke-linejoin:round;stroke-miterlimit:10;stroke-dasharray:none;stroke-opacity:1"
       id="path10" /><path
       d="m 34000,56180 h 500"
       style="fill:none;stroke:#840000;stroke-width:60;stroke-linecap:round;stroke-linejoin:round;stroke-miterlimit:10;stroke-dasharray:none;stroke-opacity:1"
       id="path12" /><path
       d="m 32000,56180 h -500"
       style="fill:none;stroke:#840000;stroke-width:60;stroke-linecap:round;stroke-linejoin:round;stroke-miterlimit:10;stroke-dasharray:none;stroke-opacity:1"
       id="path14" /><g
       id="g16"
       transform="translate(32560,57060)" /><path
       d="m 32910,57090 -160,240"
       style="fill:none;stroke:#008484;stroke-width:60;stroke-linecap:round;stroke-linejoin:round;stroke-miterlimit:10;stroke-dasharray:none;stroke-opacity:1"
       id="path18" /><path
       d="m 32630,57090 v 500 h 190 l 40,-30 30,-20 20,-50 v -70 l -20,-50 -30,-20 -40,-20 h -190"
       style="fill:none;stroke:#008484;stroke-width:60;stroke-linecap:round;stroke-linejoin:round;stroke-miterlimit:10;stroke-dasharray:none;stroke-opacity:1"
       id="path20" /><path
       d="m 33390,57090 h -290"
       style="fill:none;stroke:#008484;stroke-width:60;stroke-linecap:round;stroke-linejoin:round;stroke-miterlimit:10;stroke-dasharray:none;stroke-opacity:1"
       id="path22" /><path
       d="m 33250,57090 v 500 l -50,-70 -50,-50 -50,-20"
       style="fill:none;stroke:#008484;stroke-width:60;stroke-linecap:round;stroke-linejoin:round;stroke-miterlimit:10;stroke-dasharray:none;stroke-opacity:1"
       id="path24" /><path
       d="m 35890,56180 c 0,612.5 497.5,1110 1110,1110 612.5,0 1110,-497.5 1110,-1110 0,-612.5 -497.5,-1110 -1110,-1110 -612.5,0 -1110,497.5 -1110,1110 z"
       style="fill:none;stroke:#840000;stroke-width:100;stroke-linecap:round;stroke-linejoin:round;stroke-miterlimit:10;stroke-dasharray:none;stroke-opacity:1"
       id="path26" /><path
       d="m 36750,55930 750,-750"
       style="fill:none;stroke:#840000;stroke-width:60;stroke-linecap:round;stroke-linejoin:round;stroke-miterlimit:10;stroke-dasharray:none;stroke-opacity:1"
       id="path28" /><path
       d="m 36750,56430 750,750 v 0"
       style="fill:none;stroke:#840000;stroke-width:60;stroke-linecap:round;stroke-linejoin:round;stroke-miterlimit:10;stroke-dasharray:none;stroke-opacity:1"
       id="path30" /><path
       d="m 36750,55430 v 1500 0"
       style="fill:none;stroke:#840000;stroke-width:200;stroke-linecap:round;stroke-linejoin:round;stroke-miterlimit:10;stroke-dasharray:none;stroke-opacity:1"
       id="path32" /><path
       d="m 37400,56880 -200,200 -200,-400 z"
       style="fill:#840000;fill-opacity:1;fill-rule:nonzero;stroke:#840000;stroke-width:60;stroke-linecap:round;stroke-linejoin:round;stroke-miterlimit:10;stroke-dasharray:none;stroke-opacity:1"
       id="path34" /><path
       d="M 37500,55180 V 54180"
       style="fill:none;stroke:#840000;stroke-width:60;stroke-linecap:round;stroke-linejoin:round;stroke-miterlimit:10;stroke-dasharray:none;stroke-opacity:1"
       id="path36" /><g
       id="g38"
       transform="rotate(90,-8195,46295)" /><path
       d="M 36750,56180 H 34500"
       style="fill:none;stroke:#840000;stroke-width:60;stroke-linecap:round;stroke-linejoin:round;stroke-miterlimit:10;stroke-dasharray:none;stroke-opacity:1"
       id="path44" /><g
       id="g46"
       transform="translate(35430,55580)" /><path
       d="m 37500,57180 v 1000"
       style="fill:none;stroke:#840000;stroke-width:60;stroke-linecap:round;stroke-linejoin:round;stroke-miterlimit:10;stroke-dasharray:none;stroke-opacity:1"
       id="path50" /><g
       id="g52"
       transform="rotate(90,-9695,47795)" /><g
       id="g56"
       transform="translate(38460,56420)" /><path
       d="m 38470,56950 h 290"
       style="fill:none;stroke:#008484;stroke-width:60;stroke-linecap:round;stroke-linejoin:round;stroke-miterlimit:10;stroke-dasharray:none;stroke-opacity:1"
       id="path58" /><path
       d="m 38620,56450 v 500"
       style="fill:none;stroke:#008484;stroke-width:60;stroke-linecap:round;stroke-linejoin:round;stroke-miterlimit:10;stroke-dasharray:none;stroke-opacity:1"
       id="path60" /><path
       d="m 39190,56450 h -290"
       style="fill:none;stroke:#008484;stroke-width:60;stroke-linecap:round;stroke-linejoin:round;stroke-miterlimit:10;stroke-dasharray:none;stroke-opacity:1"
       id="path62" /><path
       d="m 39050,56450 v 500 l -50,-70 -50,-50 -50,-20"
       style="fill:none;stroke:#008484;stroke-width:60;stroke-linecap:round;stroke-linejoin:round;stroke-miterlimit:10;stroke-dasharray:none;stroke-opacity:1"
       id="path64" /><g
       id="g66"
       transform="translate(38530,55510)" /><path
       d="m 35890,47180 c 0,612.5 497.5,1110 1110,1110 612.5,0 1110,-497.5 1110,-1110 0,-612.5 -497.5,-1110 -1110,-1110 -612.5,0 -1110,497.5 -1110,1110 z"
       style="fill:none;stroke:#840000;stroke-width:120;stroke-linecap:round;stroke-linejoin:round;stroke-miterlimit:10;stroke-dasharray:none;stroke-opacity:1"
       id="path68" /><path
       d="m 36500,47180 h 250"
       style="fill:none;stroke:#840000;stroke-width:60;stroke-linecap:round;stroke-linejoin:round;stroke-miterlimit:10;stroke-dasharray:none;stroke-opacity:1"
       id="path70" /><path
       d="m 37500,46180 -750,750"
       style="fill:none;stroke:#840000;stroke-width:60;stroke-linecap:round;stroke-linejoin:round;stroke-miterlimit:10;stroke-dasharray:none;stroke-opacity:1"
       id="path72" /><path
       d="m 37500,48180 -750,-750"
       style="fill:none;stroke:#840000;stroke-width:60;stroke-linecap:round;stroke-linejoin:round;stroke-miterlimit:10;stroke-dasharray:none;stroke-opacity:1"
       id="path74" /><path
       d="m 36750,47930 v -1500 0 z"
       style="fill:#840000;fill-opacity:1;fill-rule:nonzero;stroke:#840000;stroke-width:200;stroke-linecap:round;stroke-linejoin:round;stroke-miterlimit:10;stroke-dasharray:none;stroke-opacity:1"
       id="path76" /><path
       d="m 36990,46480 200,200 210,-400 z"
       style="fill:#840000;fill-opacity:1;fill-rule:nonzero;stroke:#840000;stroke-width:60;stroke-linecap:round;stroke-linejoin:round;stroke-miterlimit:10;stroke-dasharray:none;stroke-opacity:1"
       id="path78" /><path
       d="M 37500,46180 V 45180"
       style="fill:none;stroke:#840000;stroke-width:60;stroke-linecap:round;stroke-linejoin:round;stroke-miterlimit:10;stroke-dasharray:none;stroke-opacity:1"
       id="path80" /><g
       id="g82"
       transform="rotate(90,-3695,41795)" /><path
       d="m 37500,48180 v 1000"
       style="fill:none;stroke:#840000;stroke-width:60;stroke-linecap:round;stroke-linejoin:round;stroke-miterlimit:10;stroke-dasharray:none;stroke-opacity:1"
       id="path88" /><g
       id="g90"
       transform="rotate(90,-5195,43295)" /><path
       d="M 36500,47180 H 34500"
       style="fill:none;stroke:#840000;stroke-width:60;stroke-linecap:round;stroke-linejoin:round;stroke-miterlimit:10;stroke-dasharray:none;stroke-opacity:1"
       id="path94" /><g
       id="g96"
       transform="translate(35310,46580)" /><g
       id="g100"
       transform="translate(38480,47370)" /><path
       d="m 38490,47900 h 290"
       style="fill:none;stroke:#008484;stroke-width:60;stroke-linecap:round;stroke-linejoin:round;stroke-miterlimit:10;stroke-dasharray:none;stroke-opacity:1"
       id="path102" /><path
       d="m 38640,47400 v 500"
       style="fill:none;stroke:#008484;stroke-width:60;stroke-linecap:round;stroke-linejoin:round;stroke-miterlimit:10;stroke-dasharray:none;stroke-opacity:1"
       id="path104" /><path
       d="m 38900,47900 h 310 l -170,-190 h 70 l 50,-30 20,-20 30,-50 v -120 l -30,-40 -20,-30 -50,-20 h -140 l -50,20 -20,30"
       style="fill:none;stroke:#008484;stroke-width:60;stroke-linecap:round;stroke-linejoin:round;stroke-miterlimit:10;stroke-dasharray:none;stroke-opacity:1"
       id="path106" /><g
       id="g108"
       transform="translate(38550,46460)" /><path
       d="m 46890,56180 c 0,612.5 497.5,1110 1110,1110 612.5,0 1110,-497.5 1110,-1110 0,-612.5 -497.5,-1110 -1110,-1110 -612.5,0 -1110,497.5 -1110,1110 z"
       style="fill:none;stroke:#840000;stroke-width:100;stroke-linecap:round;stroke-linejoin:round;stroke-miterlimit:10;stroke-dasharray:none;stroke-opacity:1"
       id="path110" /><path
       d="m 48250,55930 -750,-750"
       style="fill:none;stroke:#840000;stroke-width:60;stroke-linecap:round;stroke-linejoin:round;stroke-miterlimit:10;stroke-dasharray:none;stroke-opacity:1"
       id="path112" /><path
       d="m 48250,56430 -750,750 v 0"
       style="fill:none;stroke:#840000;stroke-width:60;stroke-linecap:round;stroke-linejoin:round;stroke-miterlimit:10;stroke-dasharray:none;stroke-opacity:1"
       id="path114" /><path
       d="m 48250,55430 v 1500 0"
       style="fill:none;stroke:#840000;stroke-width:200;stroke-linecap:round;stroke-linejoin:round;stroke-miterlimit:10;stroke-dasharray:none;stroke-opacity:1"
       id="path116" /><path
       d="m 47600,56880 200,200 200,-400 z"
       style="fill:#840000;fill-opacity:1;fill-rule:nonzero;stroke:#840000;stroke-width:60;stroke-linecap:round;stroke-linejoin:round;stroke-miterlimit:10;stroke-dasharray:none;stroke-opacity:1"
       id="path118" /><path
       d="M 47500,55180 V 54180"
       style="fill:none;stroke:#840000;stroke-width:60;stroke-linecap:round;stroke-linejoin:round;stroke-miterlimit:10;stroke-dasharray:none;stroke-opacity:1"
       id="path120" /><g
       id="g122"
       transform="rotate(90,-3195,51295)" /><path
       d="m 48250,56180 h 2250"
       style="fill:none;stroke:#840000;stroke-width:60;stroke-linecap:round;stroke-linejoin:round;stroke-miterlimit:10;stroke-dasharray:none;stroke-opacity:1"
       id="path128" /><g
       id="g130"
       transform="translate(49180,55580)" /><path
       d="m 47500,57180 v 1000"
       style="fill:none;stroke:#840000;stroke-width:60;stroke-linecap:round;stroke-linejoin:round;stroke-miterlimit:10;stroke-dasharray:none;stroke-opacity:1"
       id="path134" /><g
       id="g136"
       transform="rotate(90,-4695,52795)" /><g
       id="g140"
       transform="translate(45730,56420)" /><path
       d="m 45740,56950 h 290"
       style="fill:none;stroke:#008484;stroke-width:60;stroke-linecap:round;stroke-linejoin:round;stroke-miterlimit:10;stroke-dasharray:none;stroke-opacity:1"
       id="path142" /><path
       d="m 45890,56450 v 500"
       style="fill:none;stroke:#008484;stroke-width:60;stroke-linecap:round;stroke-linejoin:round;stroke-miterlimit:10;stroke-dasharray:none;stroke-opacity:1"
       id="path144" /><path
       d="m 46170,56900 30,20 40,30 h 120 l 50,-30 20,-20 30,-50 v -40 l -30,-80 -280,-280 h 310"
       style="fill:none;stroke:#008484;stroke-width:60;stroke-linecap:round;stroke-linejoin:round;stroke-miterlimit:10;stroke-dasharray:none;stroke-opacity:1"
       id="path146" /><g
       id="g148"
       transform="translate(46280,55510)" /><path
       d="m 41500,52080 h 2000 v -800 h -2000 z"
       style="fill:none;stroke:#840000;stroke-width:100;stroke-linecap:round;stroke-linejoin:round;stroke-miterlimit:10;stroke-dasharray:none;stroke-opacity:1"
       id="path150" /><path
       d="m 43500,51680 h 500"
       style="fill:none;stroke:#840000;stroke-width:60;stroke-linecap:round;stroke-linejoin:round;stroke-miterlimit:10;stroke-dasharray:none;stroke-opacity:1"
       id="path152" /><path
       d="m 41500,51680 h -500"
       style="fill:none;stroke:#840000;stroke-width:60;stroke-linecap:round;stroke-linejoin:round;stroke-miterlimit:10;stroke-dasharray:none;stroke-opacity:1"
       id="path154" /><g
       id="g156"
       transform="translate(42500,52560)" /><path
       d="m 40910,52590 v 500"
       style="fill:none;stroke:#008484;stroke-width:60;stroke-linecap:round;stroke-linejoin:round;stroke-miterlimit:10;stroke-dasharray:none;stroke-opacity:1"
       id="path158" /><path
       d="m 40910,52850 h 290"
       style="fill:none;stroke:#008484;stroke-width:60;stroke-linecap:round;stroke-linejoin:round;stroke-miterlimit:10;stroke-dasharray:none;stroke-opacity:1"
       id="path160" /><path
       d="m 41200,52590 v 500"
       style="fill:none;stroke:#008484;stroke-width:60;stroke-linecap:round;stroke-linejoin:round;stroke-miterlimit:10;stroke-dasharray:none;stroke-opacity:1"
       id="path162" /><path
       d="m 41650,52590 v 260 l -20,50 -50,20 h -100 l -40,-20"
       style="fill:none;stroke:#008484;stroke-width:60;stroke-linecap:round;stroke-linejoin:round;stroke-miterlimit:10;stroke-dasharray:none;stroke-opacity:1"
       id="path164" /><path
       d="m 41650,52610 -50,-20 h -120 l -40,20 -30,50 v 50 l 30,50 40,20 h 120 l 50,20"
       style="fill:none;stroke:#008484;stroke-width:60;stroke-linecap:round;stroke-linejoin:round;stroke-miterlimit:10;stroke-dasharray:none;stroke-opacity:1"
       id="path166" /><path
       d="m 41890,52590 v 330 h 190"
       style="fill:none;stroke:#008484;stroke-width:60;stroke-linecap:round;stroke-linejoin:round;stroke-miterlimit:10;stroke-dasharray:none;stroke-opacity:1"
       id="path168" /><path
       d="m 42250,52920 v -500"
       style="fill:none;stroke:#008484;stroke-width:60;stroke-linecap:round;stroke-linejoin:round;stroke-miterlimit:10;stroke-dasharray:none;stroke-opacity:1"
       id="path170" /><path
       d="m 42250,52900 40,20 h 100 l 50,-20 20,-30 20,-40 v -150 l -20,-40 -20,-30 -50,-20 h -100 l -40,20"
       style="fill:none;stroke:#008484;stroke-width:60;stroke-linecap:round;stroke-linejoin:round;stroke-miterlimit:10;stroke-dasharray:none;stroke-opacity:1"
       id="path172" /><path
       d="m 42650,52920 120,-330"
       style="fill:none;stroke:#008484;stroke-width:60;stroke-linecap:round;stroke-linejoin:round;stroke-miterlimit:10;stroke-dasharray:none;stroke-opacity:1"
       id="path174" /><path
       d="m 42890,52920 -120,-330 -50,-120 -20,-20 -50,-30"
       style="fill:none;stroke:#008484;stroke-width:60;stroke-linecap:round;stroke-linejoin:round;stroke-miterlimit:10;stroke-dasharray:none;stroke-opacity:1"
       id="path176" /><path
       d="m 43130,52760 h 40"
       style="fill:none;stroke:#008484;stroke-width:60;stroke-linecap:round;stroke-linejoin:round;stroke-miterlimit:10;stroke-dasharray:none;stroke-opacity:1"
       id="path178" /><path
       d="m 43030,52900 50,20 h 90 l 50,-20 30,-50 v -20 l -30,-50 -50,-20 50,-30 30,-50 v -20 l -30,-50 -50,-20 h -90 l -50,20"
       style="fill:none;stroke:#008484;stroke-width:60;stroke-linecap:round;stroke-linejoin:round;stroke-miterlimit:10;stroke-dasharray:none;stroke-opacity:1"
       id="path180" /><path
       d="m 43460,52920 v -330"
       style="fill:none;stroke:#008484;stroke-width:60;stroke-linecap:round;stroke-linejoin:round;stroke-miterlimit:10;stroke-dasharray:none;stroke-opacity:1"
       id="path182" /><path
       d="m 43510,52780 140,-190"
       style="fill:none;stroke:#008484;stroke-width:60;stroke-linecap:round;stroke-linejoin:round;stroke-miterlimit:10;stroke-dasharray:none;stroke-opacity:1"
       id="path184" /><path
       d="m 43650,52920 -190,-190"
       style="fill:none;stroke:#008484;stroke-width:60;stroke-linecap:round;stroke-linejoin:round;stroke-miterlimit:10;stroke-dasharray:none;stroke-opacity:1"
       id="path186" /><path
       d="m 44080,52590 v 260 l -30,50 -40,20 h -100 l -50,-20"
       style="fill:none;stroke:#008484;stroke-width:60;stroke-linecap:round;stroke-linejoin:round;stroke-miterlimit:10;stroke-dasharray:none;stroke-opacity:1"
       id="path188" /><path
       d="m 44080,52610 -50,-20 h -120 l -50,20 -20,50 v 50 l 20,50 50,20 h 120 l 50,20"
       style="fill:none;stroke:#008484;stroke-width:60;stroke-linecap:round;stroke-linejoin:round;stroke-miterlimit:10;stroke-dasharray:none;stroke-opacity:1"
       id="path190" /><path
       d="m 46890,47180 c 0,612.5 497.5,1110 1110,1110 612.5,0 1110,-497.5 1110,-1110 0,-612.5 -497.5,-1110 -1110,-1110 -612.5,0 -1110,497.5 -1110,1110 z"
       style="fill:none;stroke:#840000;stroke-width:120;stroke-linecap:round;stroke-linejoin:round;stroke-miterlimit:10;stroke-dasharray:none;stroke-opacity:1"
       id="path192" /><path
       d="m 48500,47180 h -250"
       style="fill:none;stroke:#840000;stroke-width:60;stroke-linecap:round;stroke-linejoin:round;stroke-miterlimit:10;stroke-dasharray:none;stroke-opacity:1"
       id="path194" /><path
       d="m 47500,46180 750,750"
       style="fill:none;stroke:#840000;stroke-width:60;stroke-linecap:round;stroke-linejoin:round;stroke-miterlimit:10;stroke-dasharray:none;stroke-opacity:1"
       id="path196" /><path
       d="m 47500,48180 750,-750"
       style="fill:none;stroke:#840000;stroke-width:60;stroke-linecap:round;stroke-linejoin:round;stroke-miterlimit:10;stroke-dasharray:none;stroke-opacity:1"
       id="path198" /><path
       d="m 48250,47930 v -1500 0 z"
       style="fill:#840000;fill-opacity:1;fill-rule:nonzero;stroke:#840000;stroke-width:200;stroke-linecap:round;stroke-linejoin:round;stroke-miterlimit:10;stroke-dasharray:none;stroke-opacity:1"
       id="path200" /><path
       d="m 48010,46480 -200,200 -210,-400 z"
       style="fill:#840000;fill-opacity:1;fill-rule:nonzero;stroke:#840000;stroke-width:60;stroke-linecap:round;stroke-linejoin:round;stroke-miterlimit:10;stroke-dasharray:none;stroke-opacity:1"
       id="path202" /><path
       d="M 47500,46180 V 45180"
       style="fill:none;stroke:#840000;stroke-width:60;stroke-linecap:round;stroke-linejoin:round;stroke-miterlimit:10;stroke-dasharray:none;stroke-opacity:1"
       id="path204" /><g
       id="g206"
       transform="rotate(90,1305,46795)" /><path
       d="m 47500,48180 v 1000"
       style="fill:none;stroke:#840000;stroke-width:60;stroke-linecap:round;stroke-linejoin:round;stroke-miterlimit:10;stroke-dasharray:none;stroke-opacity:1"
       id="path212" /><g
       id="g214"
       transform="rotate(90,-195,48295)" /><path
       d="m 48500,47180 h 2000"
       style="fill:none;stroke:#840000;stroke-width:60;stroke-linecap:round;stroke-linejoin:round;stroke-miterlimit:10;stroke-dasharray:none;stroke-opacity:1"
       id="path218" /><g
       id="g220"
       transform="translate(49310,46580)" /><g
       id="g224"
       transform="translate(45720,47370)" /><path
       d="m 45730,47900 h 290"
       style="fill:none;stroke:#008484;stroke-width:60;stroke-linecap:round;stroke-linejoin:round;stroke-miterlimit:10;stroke-dasharray:none;stroke-opacity:1"
       id="path226" /><path
       d="m 45880,47400 v 500"
       style="fill:none;stroke:#008484;stroke-width:60;stroke-linecap:round;stroke-linejoin:round;stroke-miterlimit:10;stroke-dasharray:none;stroke-opacity:1"
       id="path228" /><path
       d="m 46400,47730 v -330"
       style="fill:none;stroke:#008484;stroke-width:60;stroke-linecap:round;stroke-linejoin:round;stroke-miterlimit:10;stroke-dasharray:none;stroke-opacity:1"
       id="path230" /><path
       d="m 46280,47920 -120,-350 h 310"
       style="fill:none;stroke:#008484;stroke-width:60;stroke-linecap:round;stroke-linejoin:round;stroke-miterlimit:10;stroke-dasharray:none;stroke-opacity:1"
       id="path232" /><g
       id="g234"
       transform="translate(46270,46460)" /><path
       d="m 51000,56580 h 2000 v -800 h -2000 z"
       style="fill:none;stroke:#840000;stroke-width:100;stroke-linecap:round;stroke-linejoin:round;stroke-miterlimit:10;stroke-dasharray:none;stroke-opacity:1"
       id="path236" /><path
       d="m 53000,56180 h 500"
       style="fill:none;stroke:#840000;stroke-width:60;stroke-linecap:round;stroke-linejoin:round;stroke-miterlimit:10;stroke-dasharray:none;stroke-opacity:1"
       id="path238" /><path
       d="m 51000,56180 h -500"
       style="fill:none;stroke:#840000;stroke-width:60;stroke-linecap:round;stroke-linejoin:round;stroke-miterlimit:10;stroke-dasharray:none;stroke-opacity:1"
       id="path240" /><g
       id="g242"
       transform="translate(51560,57060)" /><path
       d="m 51910,57090 -160,240"
       style="fill:none;stroke:#008484;stroke-width:60;stroke-linecap:round;stroke-linejoin:round;stroke-miterlimit:10;stroke-dasharray:none;stroke-opacity:1"
       id="path244" /><path
       d="m 51630,57090 v 500 h 190 l 40,-30 30,-20 20,-50 v -70 l -20,-50 -30,-20 -40,-20 h -190"
       style="fill:none;stroke:#008484;stroke-width:60;stroke-linecap:round;stroke-linejoin:round;stroke-miterlimit:10;stroke-dasharray:none;stroke-opacity:1"
       id="path246" /><path
       d="m 52100,57540 30,20 40,30 h 120 l 50,-30 20,-20 30,-50 v -40 l -30,-80 -280,-280 h 310"
       style="fill:none;stroke:#008484;stroke-width:60;stroke-linecap:round;stroke-linejoin:round;stroke-miterlimit:10;stroke-dasharray:none;stroke-opacity:1"
       id="path248" /><path
       d="m 28390,54180 c 0,612.5 497.5,1110 1110,1110 612.5,0 1110,-497.5 1110,-1110 0,-612.5 -497.5,-1110 -1110,-1110 -612.5,0 -1110,497.5 -1110,1110 z"
       style="fill:none;stroke:#840000;stroke-width:120;stroke-linecap:round;stroke-linejoin:round;stroke-miterlimit:10;stroke-dasharray:none;stroke-opacity:1"
       id="path250" /><path
       d="m 29000,54180 h 250"
       style="fill:none;stroke:#840000;stroke-width:60;stroke-linecap:round;stroke-linejoin:round;stroke-miterlimit:10;stroke-dasharray:none;stroke-opacity:1"
       id="path252" /><path
       d="m 30000,53180 -750,750"
       style="fill:none;stroke:#840000;stroke-width:60;stroke-linecap:round;stroke-linejoin:round;stroke-miterlimit:10;stroke-dasharray:none;stroke-opacity:1"
       id="path254" /><path
       d="m 30000,55180 -750,-750"
       style="fill:none;stroke:#840000;stroke-width:60;stroke-linecap:round;stroke-linejoin:round;stroke-miterlimit:10;stroke-dasharray:none;stroke-opacity:1"
       id="path256" /><path
       d="m 29250,54930 v -1500 0 z"
       style="fill:#840000;fill-opacity:1;fill-rule:nonzero;stroke:#840000;stroke-width:200;stroke-linecap:round;stroke-linejoin:round;stroke-miterlimit:10;stroke-dasharray:none;stroke-opacity:1"
       id="path258" /><path
       d="m 29490,53480 200,200 210,-400 z"
       style="fill:#840000;fill-opacity:1;fill-rule:nonzero;stroke:#840000;stroke-width:60;stroke-linecap:round;stroke-linejoin:round;stroke-miterlimit:10;stroke-dasharray:none;stroke-opacity:1"
       id="path260" /><path
       d="M 30000,53180 V 52180"
       style="fill:none;stroke:#840000;stroke-width:60;stroke-linecap:round;stroke-linejoin:round;stroke-miterlimit:10;stroke-dasharray:none;stroke-opacity:1"
       id="path262" /><g
       id="g264"
       transform="rotate(90,-10945,41545)" /><path
       d="m 30000,55180 v 1000"
       style="fill:none;stroke:#840000;stroke-width:60;stroke-linecap:round;stroke-linejoin:round;stroke-miterlimit:10;stroke-dasharray:none;stroke-opacity:1"
       id="path270" /><g
       id="g272"
       transform="rotate(90,-12445,43045)" /><path
       d="M 29000,54180 H 27000"
       style="fill:none;stroke:#840000;stroke-width:60;stroke-linecap:round;stroke-linejoin:round;stroke-miterlimit:10;stroke-dasharray:none;stroke-opacity:1"
       id="path276" /><g
       id="g278"
       transform="translate(27810,53580)" /><g
       id="g282"
       transform="translate(30980,54370)" /><path
       d="m 30990,54900 h 290"
       style="fill:none;stroke:#008484;stroke-width:60;stroke-linecap:round;stroke-linejoin:round;stroke-miterlimit:10;stroke-dasharray:none;stroke-opacity:1"
       id="path284" /><path
       d="m 31140,54400 v 500"
       style="fill:none;stroke:#008484;stroke-width:60;stroke-linecap:round;stroke-linejoin:round;stroke-miterlimit:10;stroke-dasharray:none;stroke-opacity:1"
       id="path286" /><path
       d="m 31680,54900 h -230 l -30,-240 30,20 40,30 h 120 l 50,-30 20,-20 30,-50 v -120 l -30,-40 -20,-30 -50,-20 h -120 l -40,20 -30,30"
       style="fill:none;stroke:#008484;stroke-width:60;stroke-linecap:round;stroke-linejoin:round;stroke-miterlimit:10;stroke-dasharray:none;stroke-opacity:1"
       id="path288" /><g
       id="g290"
       transform="translate(31050,53460)" /><path
       d="m 42200,58680 300,500"
       style="fill:none;stroke:#840000;stroke-width:60;stroke-linecap:round;stroke-linejoin:round;stroke-miterlimit:10;stroke-dasharray:none;stroke-opacity:1"
       id="path292" /><path
       d="m 42500,58180 v 1000"
       style="fill:none;stroke:#840000;stroke-width:60;stroke-linecap:round;stroke-linejoin:round;stroke-miterlimit:10;stroke-dasharray:none;stroke-opacity:1"
       id="path294" /><path
       d="m 42500,59180 300,-500"
       style="fill:none;stroke:#840000;stroke-width:60;stroke-linecap:round;stroke-linejoin:round;stroke-miterlimit:10;stroke-dasharray:none;stroke-opacity:1"
       id="path296" /><path
       d="m 54390,54180 c 0,612.5 497.5,1110 1110,1110 612.5,0 1110,-497.5 1110,-1110 0,-612.5 -497.5,-1110 -1110,-1110 -612.5,0 -1110,497.5 -1110,1110 z"
       style="fill:none;stroke:#840000;stroke-width:120;stroke-linecap:round;stroke-linejoin:round;stroke-miterlimit:10;stroke-dasharray:none;stroke-opacity:1"
       id="path298" /><path
       d="m 56000,54180 h -250"
       style="fill:none;stroke:#840000;stroke-width:60;stroke-linecap:round;stroke-linejoin:round;stroke-miterlimit:10;stroke-dasharray:none;stroke-opacity:1"
       id="path300" /><path
       d="m 55000,53180 750,750"
       style="fill:none;stroke:#840000;stroke-width:60;stroke-linecap:round;stroke-linejoin:round;stroke-miterlimit:10;stroke-dasharray:none;stroke-opacity:1"
       id="path302" /><path
       d="m 55000,55180 750,-750"
       style="fill:none;stroke:#840000;stroke-width:60;stroke-linecap:round;stroke-linejoin:round;stroke-miterlimit:10;stroke-dasharray:none;stroke-opacity:1"
       id="path304" /><path
       d="m 55750,54930 v -1500 0 z"
       style="fill:#840000;fill-opacity:1;fill-rule:nonzero;stroke:#840000;stroke-width:200;stroke-linecap:round;stroke-linejoin:round;stroke-miterlimit:10;stroke-dasharray:none;stroke-opacity:1"
       id="path306" /><path
       d="m 55510,53480 -200,200 -210,-400 z"
       style="fill:#840000;fill-opacity:1;fill-rule:nonzero;stroke:#840000;stroke-width:60;stroke-linecap:round;stroke-linejoin:round;stroke-miterlimit:10;stroke-dasharray:none;stroke-opacity:1"
       id="path308" /><path
       d="M 55000,53180 V 52180"
       style="fill:none;stroke:#840000;stroke-width:60;stroke-linecap:round;stroke-linejoin:round;stroke-miterlimit:10;stroke-dasharray:none;stroke-opacity:1"
       id="path310" /><g
       id="g312"
       transform="rotate(90,1555,54045)" /><path
       d="m 55000,55180 v 1000"
       style="fill:none;stroke:#840000;stroke-width:60;stroke-linecap:round;stroke-linejoin:round;stroke-miterlimit:10;stroke-dasharray:none;stroke-opacity:1"
       id="path318" /><g
       id="g320"
       transform="rotate(90,55,55545)" /><path
       d="m 56000,54180 h 2000"
       style="fill:none;stroke:#840000;stroke-width:60;stroke-linecap:round;stroke-linejoin:round;stroke-miterlimit:10;stroke-dasharray:none;stroke-opacity:1"
       id="path324" /><g
       id="g326"
       transform="translate(56810,53580)" /><g
       id="g330"
       transform="translate(53220,54370)" /><path
       d="m 53230,54900 h 290"
       style="fill:none;stroke:#008484;stroke-width:60;stroke-linecap:round;stroke-linejoin:round;stroke-miterlimit:10;stroke-dasharray:none;stroke-opacity:1"
       id="path332" /><path
       d="m 53380,54400 v 500"
       style="fill:none;stroke:#008484;stroke-width:60;stroke-linecap:round;stroke-linejoin:round;stroke-miterlimit:10;stroke-dasharray:none;stroke-opacity:1"
       id="path334" /><path
       d="m 53900,54900 h -90 l -50,-30 -30,-20 -40,-70 -30,-100 v -190 l 30,-40 20,-30 50,-20 h 90 l 50,20 20,30 30,40 v 120 l -30,50 -20,20 -50,30 h -90 l -50,-30 -20,-20 -30,-50"
       style="fill:none;stroke:#008484;stroke-width:60;stroke-linecap:round;stroke-linejoin:round;stroke-miterlimit:10;stroke-dasharray:none;stroke-opacity:1"
       id="path336" /><g
       id="g338"
       transform="translate(53770,53460)" /><path
       d="m 58500,54580 h 2000 v -800 h -2000 z"
       style="fill:none;stroke:#840000;stroke-width:100;stroke-linecap:round;stroke-linejoin:round;stroke-miterlimit:10;stroke-dasharray:none;stroke-opacity:1"
       id="path340" /><path
       d="m 60500,54180 h 500"
       style="fill:none;stroke:#840000;stroke-width:60;stroke-linecap:round;stroke-linejoin:round;stroke-miterlimit:10;stroke-dasharray:none;stroke-opacity:1"
       id="path342" /><path
       d="m 58500,54180 h -500"
       style="fill:none;stroke:#840000;stroke-width:60;stroke-linecap:round;stroke-linejoin:round;stroke-miterlimit:10;stroke-dasharray:none;stroke-opacity:1"
       id="path344" /><g
       id="g346"
       transform="translate(59060,55060)" /><path
       d="m 59410,55090 -160,240"
       style="fill:none;stroke:#008484;stroke-width:60;stroke-linecap:round;stroke-linejoin:round;stroke-miterlimit:10;stroke-dasharray:none;stroke-opacity:1"
       id="path348" /><path
       d="m 59130,55090 v 500 h 190 l 40,-30 30,-20 20,-50 v -70 l -20,-50 -30,-20 -40,-20 h -190"
       style="fill:none;stroke:#008484;stroke-width:60;stroke-linecap:round;stroke-linejoin:round;stroke-miterlimit:10;stroke-dasharray:none;stroke-opacity:1"
       id="path350" /><path
       d="m 59840,55590 h -90 l -50,-30 -30,-20 -40,-70 -30,-100 v -190 l 30,-40 20,-30 50,-20 h 90 l 50,20 20,30 30,40 v 120 l -30,50 -20,20 -50,30 h -90 l -50,-30 -20,-20 -30,-50"
       style="fill:none;stroke:#008484;stroke-width:60;stroke-linecap:round;stroke-linejoin:round;stroke-miterlimit:10;stroke-dasharray:none;stroke-opacity:1"
       id="path352" /><path
       d="m 24500,54580 h 2000 v -800 h -2000 z"
       style="fill:none;stroke:#840000;stroke-width:100;stroke-linecap:round;stroke-linejoin:round;stroke-miterlimit:10;stroke-dasharray:none;stroke-opacity:1"
       id="path354" /><path
       d="m 26500,54180 h 500"
       style="fill:none;stroke:#840000;stroke-width:60;stroke-linecap:round;stroke-linejoin:round;stroke-miterlimit:10;stroke-dasharray:none;stroke-opacity:1"
       id="path356" /><path
       d="m 24500,54180 h -500"
       style="fill:none;stroke:#840000;stroke-width:60;stroke-linecap:round;stroke-linejoin:round;stroke-miterlimit:10;stroke-dasharray:none;stroke-opacity:1"
       id="path358" /><g
       id="g360"
       transform="translate(25060,55060)" /><path
       d="m 25410,55090 -160,240"
       style="fill:none;stroke:#008484;stroke-width:60;stroke-linecap:round;stroke-linejoin:round;stroke-miterlimit:10;stroke-dasharray:none;stroke-opacity:1"
       id="path362" /><path
       d="m 25130,55090 v 500 h 190 l 40,-30 30,-20 20,-50 v -70 l -20,-50 -30,-20 -40,-20 h -190"
       style="fill:none;stroke:#008484;stroke-width:60;stroke-linecap:round;stroke-linejoin:round;stroke-miterlimit:10;stroke-dasharray:none;stroke-opacity:1"
       id="path364" /><path
       d="m 25860,55590 h -230 l -30,-240 30,20 40,30 h 120 l 50,-30 20,-20 30,-50 v -120 l -30,-40 -20,-30 -50,-20 h -120 l -40,20 -30,30"
       style="fill:none;stroke:#008484;stroke-width:60;stroke-linecap:round;stroke-linejoin:round;stroke-miterlimit:10;stroke-dasharray:none;stroke-opacity:1"
       id="path366" /><path
       d="m 42000,44580 h 1000 v -200 h -1000 z"
       style="fill:#840000;fill-opacity:1;fill-rule:nonzero;stroke:#840000;stroke-width:100;stroke-linecap:round;stroke-linejoin:round;stroke-miterlimit:10;stroke-dasharray:none;stroke-opacity:1"
       id="path368" /><path
       d="m 42500,45180 v -600"
       style="fill:none;stroke:#840000;stroke-width:60;stroke-linecap:round;stroke-linejoin:round;stroke-miterlimit:10;stroke-dasharray:none;stroke-opacity:1"
       id="path370" /><path
       d="M 30000,52180 V 50680"
       style="fill:none;stroke:#008400;stroke-width:60;stroke-linecap:round;stroke-linejoin:round;stroke-miterlimit:10;stroke-dasharray:none;stroke-opacity:1"
       id="path372" /><path
       d="M 55000,56180 H 53500"
       style="fill:none;stroke:#008400;stroke-width:60;stroke-linecap:round;stroke-linejoin:round;stroke-miterlimit:10;stroke-dasharray:none;stroke-opacity:1"
       id="path374" /><path
       d="M 31500,56180 H 30000"
       style="fill:none;stroke:#008400;stroke-width:60;stroke-linecap:round;stroke-linejoin:round;stroke-miterlimit:10;stroke-dasharray:none;stroke-opacity:1"
       id="path376" /><path
       d="m 42500,45180 h 5000"
       style="fill:none;stroke:#008400;stroke-width:60;stroke-linecap:round;stroke-linejoin:round;stroke-miterlimit:10;stroke-dasharray:none;stroke-opacity:1"
       id="path378" /><path
       d="M 30000,50680 H 52000"
       style="fill:none;stroke:#008400;stroke-width:60;stroke-linecap:round;stroke-linejoin:round;stroke-miterlimit:10;stroke-dasharray:none;stroke-opacity:1"
       id="path380" /><path
       d="M 52000,50680 V 47180"
       style="fill:none;stroke:#008400;stroke-width:60;stroke-linecap:round;stroke-linejoin:round;stroke-miterlimit:10;stroke-dasharray:none;stroke-opacity:1"
       id="path382" /><path
       d="M 52000,47180 H 50500"
       style="fill:none;stroke:#008400;stroke-width:60;stroke-linecap:round;stroke-linejoin:round;stroke-miterlimit:10;stroke-dasharray:none;stroke-opacity:1"
       id="path384" /><path
       d="M 55000,52180 V 50180"
       style="fill:none;stroke:#008400;stroke-width:60;stroke-linecap:round;stroke-linejoin:round;stroke-miterlimit:10;stroke-dasharray:none;stroke-opacity:1"
       id="path386" /><path
       d="M 55000,50180 H 33000"
       style="fill:none;stroke:#008400;stroke-width:60;stroke-linecap:round;stroke-linejoin:round;stroke-miterlimit:10;stroke-dasharray:none;stroke-opacity:1"
       id="path388" /><path
       d="M 42500,58180 H 37500"
       style="fill:none;stroke:#008400;stroke-width:60;stroke-linecap:round;stroke-linejoin:round;stroke-miterlimit:10;stroke-dasharray:none;stroke-opacity:1"
       id="path390" /><path
       d="M 33000,50180 V 47180"
       style="fill:none;stroke:#008400;stroke-width:60;stroke-linecap:round;stroke-linejoin:round;stroke-miterlimit:10;stroke-dasharray:none;stroke-opacity:1"
       id="path392" /><path
       d="m 33000,47180 h 1500"
       style="fill:none;stroke:#008400;stroke-width:60;stroke-linecap:round;stroke-linejoin:round;stroke-miterlimit:10;stroke-dasharray:none;stroke-opacity:1"
       id="path394" /><path
       d="m 37500,45180 h 5000"
       style="fill:none;stroke:#008400;stroke-width:60;stroke-linecap:round;stroke-linejoin:round;stroke-miterlimit:10;stroke-dasharray:none;stroke-opacity:1"
       id="path396" /><path
       d="M 47500,58180 H 42500"
       style="fill:none;stroke:#008400;stroke-width:60;stroke-linecap:round;stroke-linejoin:round;stroke-miterlimit:10;stroke-dasharray:none;stroke-opacity:1"
       id="path398" /><path
       d="M 37500,51680 V 49180"
       style="fill:none;stroke:#008400;stroke-width:60;stroke-linecap:round;stroke-linejoin:round;stroke-miterlimit:10;stroke-dasharray:none;stroke-opacity:1"
       id="path400" /><path
       d="M 37500,54180 V 51680"
       style="fill:none;stroke:#008400;stroke-width:60;stroke-linecap:round;stroke-linejoin:round;stroke-miterlimit:10;stroke-dasharray:none;stroke-opacity:1"
       id="path402" /><path
       d="m 44000,51680 h 3500"
       style="fill:none;stroke:#008400;stroke-width:60;stroke-linecap:round;stroke-linejoin:round;stroke-miterlimit:10;stroke-dasharray:none;stroke-opacity:1"
       id="path404" /><path
       d="M 47500,51680 V 49180"
       style="fill:none;stroke:#008400;stroke-width:60;stroke-linecap:round;stroke-linejoin:round;stroke-miterlimit:10;stroke-dasharray:none;stroke-opacity:1"
       id="path406" /><path
       d="m 47500,51680 v 2500"
       style="fill:none;stroke:#008400;stroke-width:60;stroke-linecap:round;stroke-linejoin:round;stroke-miterlimit:10;stroke-dasharray:none;stroke-opacity:1"
       id="path408" /><path
       d="M 41000,51680 H 37500"
       style="fill:none;stroke:#008400;stroke-width:60;stroke-linecap:round;stroke-linejoin:round;stroke-miterlimit:10;stroke-dasharray:none;stroke-opacity:1"
       id="path410" /><g
       id="g412"
       transform="translate(61500,54280)" /><path
       d="m 61810,54570 70,-20 30,-30 20,-40 v -80 l -20,-40 -30,-30 -50,-20 h -190 v 500 h 170 l 50,-30 20,-20 30,-50 v -40 l -30,-50 -20,-30 -50,-20 h -170"
       style="fill:none;stroke:#000000;stroke-width:60;stroke-linecap:round;stroke-linejoin:round;stroke-miterlimit:10;stroke-dasharray:none;stroke-opacity:1"
       id="path414" /><g
       id="g416"
       transform="translate(23000,54280)" /><path
       d="m 23120,54450 h 240"
       style="fill:none;stroke:#000000;stroke-width:60;stroke-linecap:round;stroke-linejoin:round;stroke-miterlimit:10;stroke-dasharray:none;stroke-opacity:1"
       id="path418" /><path
       d="m 23070,54310 170,500 170,-500"
       style="fill:none;stroke:#000000;stroke-width:60;stroke-linecap:round;stroke-linejoin:round;stroke-miterlimit:10;stroke-dasharray:none;stroke-opacity:1"
       id="path420" /><path
       d="m 42300,58180 c 0,110.4 89.6,200 200,200 110.4,0 200,-89.6 200,-200 0,-110.4 -89.6,-200 -200,-200 -110.4,0 -200,89.6 -200,200 z"
       style="fill:#008400;fill-opacity:1;fill-rule:nonzero;stroke:#008400;stroke-width:100;stroke-linecap:round;stroke-linejoin:round;stroke-miterlimit:10;stroke-dasharray:none;stroke-opacity:1"
       id="path422" /><path
       d="m 42300,45180 c 0,110.4 89.6,200 200,200 110.4,0 200,-89.6 200,-200 0,-110.4 -89.6,-200 -200,-200 -110.4,0 -200,89.6 -200,200 z"
       style="fill:#008400;fill-opacity:1;fill-rule:nonzero;stroke:#008400;stroke-width:100;stroke-linecap:round;stroke-linejoin:round;stroke-miterlimit:10;stroke-dasharray:none;stroke-opacity:1"
       id="path424" /><path
       d="m 37300,51680 c 0,110.4 89.6,200 200,200 110.4,0 200,-89.6 200,-200 0,-110.4 -89.6,-200 -200,-200 -110.4,0 -200,89.6 -200,200 z"
       style="fill:#008400;fill-opacity:1;fill-rule:nonzero;stroke:#008400;stroke-width:100;stroke-linecap:round;stroke-linejoin:round;stroke-miterlimit:10;stroke-dasharray:none;stroke-opacity:1"
       id="path426" /><path
       d="m 47300,51680 c 0,110.4 89.6,200 200,200 110.4,0 200,-89.6 200,-200 0,-110.4 -89.6,-200 -200,-200 -110.4,0 -200,89.6 -200,200 z"
       style="fill:#008400;fill-opacity:1;fill-rule:nonzero;stroke:#008400;stroke-width:100;stroke-linecap:round;stroke-linejoin:round;stroke-miterlimit:10;stroke-dasharray:none;stroke-opacity:1"
       id="path428" /></g></svg>
